<svg width="260" height="260" viewBox="0 0 260 260" fill="none" xmlns="http://www.w3.org/2000/svg">
<path fill-rule="evenodd" clip-rule="evenodd" d="M147.917 2.42058C139.698 -2.51213 129.027 0.343245 124.369 8.72161L115.734 24.2544C109.451 35.5576 117.624 49.4521 130.556 49.4521H165.073C182.272 49.4521 188.546 26.8033 173.799 17.9534L147.917 2.42058ZM27.9581 66.4101C18.5924 66.4101 11 74.0025 11 83.3682V108.662C11 125.939 33.8151 132.152 42.5749 117.26L57.4535 91.9663C64.1034 80.6615 55.9524 66.4101 42.8367 66.4101H27.9581ZM72.7375 99.4987C79.2975 88.3539 95.4173 88.3584 101.971 99.5069L142.261 168.044C148.907 179.348 140.756 193.596 127.642 193.596H47.0105C33.8927 193.596 25.742 179.34 32.3961 168.035L72.7375 99.4987ZM216.838 142.746C225.598 127.854 248.413 134.067 248.413 151.344V176.637C248.413 186.003 240.821 193.596 231.455 193.596H216.577C203.461 193.596 195.31 179.344 201.96 168.039L216.838 142.746ZM127.106 67.0444C128.571 66.6328 130.133 66.4101 131.772 66.4101C131.772 66.4101 131.772 66.4101 131.772 66.4101H212.403H212.403C213.223 66.4101 214.024 66.4659 214.802 66.573C218.616 67.0979 221.907 68.8581 224.393 71.3599C229.518 76.5193 231.219 84.833 227.018 91.9704L186.676 160.507C185.856 161.9 184.887 163.119 183.805 164.164C177.028 170.712 165.85 170.416 159.468 163.281C158.723 162.447 158.043 161.52 157.443 160.499L117.153 91.9623H117.153C111.338 82.0705 116.852 69.926 127.106 67.0444ZM69.7141 18.2586C86.1208 13.1815 102.307 31.071 93.1234 47.6019C91.7833 50.014 89.9923 52.0826 87.8891 53.7261C85.129 55.8828 81.831 57.3074 78.3084 57.8158C77.3571 57.9531 76.3894 58.0236 75.4115 58.0236C54.8619 58.0236 47.3659 30.9608 64.9871 20.3881C64.9871 20.3881 64.9872 20.388 64.9873 20.388C66.5499 19.4504 68.133 18.7479 69.7141 18.2586ZM94.4075 210.554C77.2057 210.554 70.9338 233.21 85.6867 242.056L111.581 257.583C112.609 258.199 113.676 258.694 114.764 259.071C122.381 261.712 131.063 258.601 135.133 251.262L143.742 235.736C144.526 234.323 145.083 232.87 145.434 231.408C147.892 221.18 140.22 210.554 128.911 210.554H94.4075ZM166.302 209.072C170.425 203.551 176.947 200.226 183.952 200.226C185.348 200.226 186.689 200.34 187.972 200.559C207.206 203.833 213.246 230.367 195.286 241.143C175.964 252.736 153.76 231.275 164.688 211.57C165.174 210.695 165.714 209.861 166.302 209.072Z" fill="black"/>
</svg>
